<?xml version="1.0" encoding="UTF-8" standalone="no"?>
<svg
   
   xmlns="http://www.w3.org/2000/svg"
   viewBox="150 25 295.27557 181.88977"
   id="svg2"
   height="75"
   width="150"
   version="1.1">
   <style>
   * {
      <!-- background-color: crimson; -->
   }
   #tspan16 {
      font-size:46.5px;
      font-Family: Parisienne;
}
  </style>
  <metadata
     id="metadata22">
    <rdf>
      <cc
         about="">
        <format>image/svg+xml</format>
        <type
           resource="http://purl.org/dc/dcmitype/StillImage" />
      </cc>
    </rdf>
  </metadata>
  
  <defs
     id="defs20" />
     
  <g
     id="g4">
    <path
       id="path6"
       style="fill:#000000;fill-rule:evenodd"
       d="m 297.638,47.8134 a 117.638,60.9451 0 0 1 117.638,60.945 117.638,60.9451 0 1 1 -117.638,-60.945 z" />
    <path
       id="path8"
       style="fill:#000000;fill-rule:evenodd;stroke:#ffffff;stroke-width:0.7087;stroke-linecap:butt;stroke-linejoin:miter;stroke-dasharray:none"
       d="M 297.638,60.5693 A 104.8821,48.1891 0 0 1 402.52,108.7584 104.8821,48.1891 0 1 1 297.638,60.5693 Z" />
    <g
       id="g10">
      <path
         id="path12"
         style="fill:#ffffff;fill-rule:evenodd"
         d="m 246.2794,100.2902 c -0.0957,0.8418 -0.1626,1.6586 -0.1979,2.4522 -0.0363,0.7935 -0.0549,1.3948 -0.0549,1.8027 0,0.433 0.0121,0.8474 0.0363,1.2442 0.0241,0.3968 0.0483,0.7276 0.0725,0.9915 l -0.8298,0 c -0.1441,-1.418 -0.3485,-2.5414 -0.6124,-3.3712 -0.2648,-0.8289 -0.7155,-1.418 -1.3529,-1.7665 -0.6366,-0.3494 -1.5927,-0.5231 -2.8667,-0.5231 l -2.993,0 c -0.8168,0 -1.4357,0.0659 -1.8566,0.1979 -0.4209,0.1329 -0.7034,0.4089 -0.8475,0.8298 -0.144,0.4209 -0.2165,1.076 -0.2165,1.9653 l 0,17.8857 c 0,0.8651 0.0725,1.5137 0.2165,1.9467 0.1441,0.433 0.4266,0.7155 0.8475,0.8474 0.4209,0.132 1.0398,0.198 1.8566,0.198 l 2.6325,0 c 1.5146,0 2.6622,-0.2035 3.4437,-0.6124 0.7814,-0.4088 1.3464,-1.076 1.6949,-2.0015 0.3484,-0.9255 0.6067,-2.1818 0.7749,-3.768 l 0.8298,0 c -0.0724,0.6486 -0.1078,1.5146 -0.1078,2.5962 0,0.4563 0.0177,1.1114 0.0539,1.9653 0.0363,0.853 0.1023,1.7367 0.198,2.6502 -1.2257,-0.0484 -2.6084,-0.0781 -4.1472,-0.0902 -1.5378,-0.012 -2.9084,-0.0176 -4.1099,-0.0176 -0.722,0 -1.6773,0 -2.8667,0 -1.1903,0 -2.4587,0.006 -3.8051,0.0176 -1.3455,0.0121 -2.6074,0.0418 -3.7857,0.0902 l 0,-0.7211 c 0.8168,-0.0483 1.4366,-0.144 1.8566,-0.289 0.4209,-0.144 0.7034,-0.4321 0.8475,-0.8651 0.1449,-0.433 0.2165,-1.0816 0.2165,-1.9467 l 0,-17.8857 c 0,-0.8893 -0.0716,-1.5444 -0.2165,-1.9653 -0.1441,-0.4209 -0.4266,-0.709 -0.8475,-0.8651 -0.42,-0.1571 -1.0398,-0.2472 -1.8566,-0.2713 l 0,-0.7211 c 1.1783,0.0241 2.4402,0.0483 3.7857,0.0725 1.3464,0.0241 2.6148,0.0362 3.8051,0.0362 1.1894,0 2.1447,0 2.8667,0 1.1058,0 2.3611,-0.007 3.768,-0.0186 1.4059,-0.0121 2.6622,-0.0418 3.768,-0.0901 z m -6.2026,12.3326 c 0,0 0,0.1199 0,0.3606 0,0.2406 0,0.3605 0,0.3605 l -6.5984,0 c 0,0 0,-0.1199 0,-0.3605 0,-0.2407 0,-0.3606 0,-0.3606 l 6.5984,0 z m 1.0463,-4.7595 c -0.0966,1.3697 -0.1384,2.416 -0.1263,3.1371 0.012,0.7211 0.0176,1.3817 0.0176,1.983 0,0.6012 0.0121,1.2618 0.0362,1.9829 0.0242,0.722 0.0846,1.7674 0.1803,3.138 l -0.8288,0 c -0.0967,-0.7694 -0.211,-1.5211 -0.3429,-2.2543 -0.132,-0.7331 -0.421,-1.3344 -0.8651,-1.8027 -0.4451,-0.4692 -1.1959,-0.7034 -2.2543,-0.7034 l 0,-0.7211 c 1.0584,0 1.7971,-0.2769 2.218,-0.8298 0.421,-0.5529 0.6914,-1.2015 0.8112,-1.9467 0.1199,-0.7452 0.2286,-1.4059 0.3243,-1.983 l 0.8298,0 z m 0.5408,-15.4334 c 0.4804,-0.3132 0.919,-0.4275 1.3158,-0.3429 0.3968,0.0846 0.6914,0.2825 0.8837,0.5947 0.1924,0.3131 0.2407,0.6551 0.144,1.0277 -0.0957,0.3726 -0.3967,0.7276 -0.9013,1.064 -0.5046,0.3122 -1.0881,0.5947 -1.7488,0.8474 -0.6607,0.2528 -1.4301,0.5529 -2.3082,0.9014 -0.8772,0.3484 -1.9411,0.8353 -3.1909,1.4607 l -0.2528,-0.4692 c 1.1067,-0.841 2.0136,-1.5807 2.7226,-2.2172 0.71,-0.6374 1.3167,-1.1959 1.8213,-1.6772 0.5046,-0.4804 1.0101,-0.8772 1.5146,-1.1894 z m 24.5204,5.12 0,24.3401 c 0,1.0816 0.1988,1.8816 0.5947,2.3983 0.3967,0.5166 1.1122,0.7749 2.1455,0.7749 l 0,0.7574 c -0.7452,-0.0725 -1.4904,-0.1078 -2.2357,-0.1078 -0.6969,0 -1.3641,0.0353 -2.0006,0.1078 -0.6374,0.0724 -1.2201,0.2044 -1.7488,0.3967 l 0,-24.34 c 0,-1.0816 -0.1923,-1.8817 -0.577,-2.3983 -0.3847,-0.5167 -1.1058,-0.775 -2.1642,-0.775 l 0,-0.7573 c 0.7694,0.0725 1.5146,0.1078 2.2357,0.1078 0.6979,0 1.3641,-0.0419 2.0016,-0.1255 0.6374,-0.0845 1.22,-0.2109 1.7488,-0.3791 z m -7.5723,9.1956 c 1.0575,0 2.049,0.2518 2.9745,0.7573 0.9255,0.5046 1.5453,1.3697 1.8575,2.5962 l -0.4693,0.3606 c -0.3364,-1.0101 -0.8595,-1.7432 -1.5685,-2.2004 -0.709,-0.4563 -1.5444,-0.6848 -2.5061,-0.6848 -1.418,0 -2.6018,0.7331 -3.5515,2.1994 -0.9497,1.4663 -1.4124,3.7262 -1.3883,6.7796 0,1.9468 0.1859,3.5636 0.5585,4.8496 0.3726,1.2861 0.9255,2.2478 1.6587,2.8853 0.7331,0.6365 1.6289,0.9552 2.6863,0.9552 1.0101,0 1.9235,-0.433 2.7413,-1.2981 0.8167,-0.8651 1.3102,-2.1391 1.4783,-3.8219 l 0.4321,0.5046 c -0.1923,1.8268 -0.7749,3.2337 -1.7488,4.2186 -0.9729,0.9859 -2.2896,1.4784 -3.9482,1.4784 -1.4905,0 -2.7942,-0.3605 -3.9121,-1.0816 -1.1178,-0.7211 -1.9718,-1.8027 -2.5609,-3.2448 -0.5882,-1.4431 -0.8828,-3.2579 -0.8828,-5.4453 0,-2.1874 0.3782,-4.0086 1.1356,-5.4629 0.7573,-1.4542 1.7553,-2.5423 2.993,-3.2634 1.2377,-0.7211 2.5786,-1.0816 4.0207,-1.0816 z m 20.8778,0 c 2.1158,0 3.768,0.643 4.9583,1.929 1.1904,1.2861 1.7851,3.2876 1.7851,6.0038 l -12.7295,0 -0.0353,-0.6849 9.3034,0 c 0.0474,-1.1782 -0.0483,-2.2664 -0.289,-3.2634 -0.2406,-0.998 -0.6188,-1.7971 -1.1355,-2.3983 -0.5166,-0.6012 -1.1838,-0.9014 -2.0015,-0.9014 -1.1058,0 -2.0852,0.5529 -2.9392,1.6587 -0.853,1.1058 -1.3641,2.8611 -1.5322,5.265 l 0.1077,0.144 c -0.0473,0.3605 -0.0836,0.7573 -0.1077,1.1903 -0.0242,0.4321 -0.0363,0.8651 -0.0363,1.2981 0,1.6345 0.2648,3.0405 0.7936,4.2187 0.5287,1.1773 1.22,2.0731 2.0731,2.6864 0.8539,0.6133 1.7367,0.919 2.651,0.919 1.0817,0 2.0787,-0.2639 2.9921,-0.7926 0.9144,-0.5288 1.6829,-1.4663 2.3082,-2.8128 l 0.7211,0.2881 c -0.2639,0.7935 -0.6969,1.5629 -1.2981,2.3082 -0.6012,0.7452 -1.3585,1.352 -2.272,1.8212 -0.9134,0.4684 -1.9709,0.7025 -3.1733,0.7025 -1.7302,0 -3.2151,-0.3967 -4.4528,-1.1894 -1.2377,-0.7935 -2.1874,-1.8937 -2.849,-3.2996 -0.6607,-1.406 -0.9915,-3.0228 -0.9915,-4.8497 0,-2.1158 0.3364,-3.9371 1.0101,-5.4638 0.6727,-1.5258 1.6224,-2.704 2.8481,-3.5338 1.2265,-0.8289 2.6566,-1.2433 4.2911,-1.2433 z m 15.939,0 c 0.9608,0 1.7785,0.1561 2.4512,0.4683 0.6737,0.3122 1.1662,0.6012 1.4794,0.8651 0.7926,0.6495 1.2739,0.2165 1.4421,-1.2981 l 0.8289,0 c -0.0474,0.6737 -0.0836,1.4728 -0.1078,2.3983 -0.0242,0.9255 -0.0362,2.1698 -0.0362,3.7318 l -0.8289,0 c -0.145,-0.8893 -0.3912,-1.7544 -0.7397,-2.5963 -0.3484,-0.8409 -0.8595,-1.5323 -1.5323,-2.0731 -0.6736,-0.5408 -1.5508,-0.8112 -2.6324,-0.8112 -0.8419,0 -1.5444,0.2342 -2.1094,0.7034 -0.5649,0.4684 -0.8474,1.1597 -0.8474,2.0731 0,0.7211 0.2165,1.34 0.6486,1.8576 0.433,0.5166 0.998,0.997 1.6949,1.4421 0.6969,0.4442 1.4542,0.9311 2.2719,1.4598 1.3706,0.8902 2.5359,1.7916 3.4976,2.705 0.9618,0.9134 1.4422,2.1149 1.4422,3.6054 0,1.1057 -0.2881,2.0322 -0.8651,2.7774 -0.5771,0.7443 -1.3279,1.3093 -2.2534,1.694 -0.9255,0.3847 -1.9412,0.577 -3.0469,0.577 -0.5297,0 -1.0277,-0.0418 -1.497,-0.1263 -0.4683,-0.0837 -0.919,-0.21 -1.352,-0.3782 -0.2407,-0.1199 -0.4869,-0.2649 -0.7397,-0.4331 -0.2518,-0.1681 -0.498,-0.3484 -0.7387,-0.5408 -0.2407,-0.1923 -0.4572,-0.1858 -0.6495,0.0186 -0.1924,0.2045 -0.3364,0.6068 -0.4321,1.208 l -0.8298,0 c 0.0483,-0.7694 0.0845,-1.707 0.1087,-2.8127 0.0232,-1.1058 0.0353,-2.5721 0.0353,-4.3999 l 0.8298,0 c 0.1682,1.3464 0.4089,2.5247 0.7211,3.5338 0.3122,1.0101 0.8056,1.7971 1.4784,2.3621 0.6727,0.565 1.6103,0.8475 2.8127,0.8475 0.7211,0 1.4366,-0.2519 2.1456,-0.7574 0.709,-0.5045 1.064,-1.3938 1.064,-2.6678 0,-1.0583 -0.3847,-1.9234 -1.1541,-2.5962 -0.7694,-0.6737 -1.7433,-1.3827 -2.9206,-2.1279 -0.866,-0.5529 -1.6772,-1.1058 -2.4345,-1.6587 -0.7574,-0.5529 -1.3697,-1.1782 -1.839,-1.8752 -0.4683,-0.6969 -0.7034,-1.5388 -0.7034,-2.5237 0,-1.0826 0.2472,-1.9653 0.7397,-2.6511 0.4925,-0.6848 1.1476,-1.1894 1.9653,-1.5137 0.8168,-0.3252 1.6949,-0.4869 2.6325,-0.4869 z" />
      <text
         id="text14"
         y="130.0535"
         x="305.0249">
        <tspan
           style="fill:#ffffff;"
           id="tspan16"
            >M</tspan>
      </text>
    </g>
  </g>
</svg>
